<?xml version="1.0" encoding="UTF-8"?>
<svg enable-background="new 0 0 140.301 129.383" viewBox="0 0 140.301 129.383" xmlns="http://www.w3.org/2000/svg">
 <path d="m76.435,10.906-16.079,37.383-16.304-17.586 .187,25.649-35.117-12.969 25.336,24.242-15.687,8.437 18.781,6.399-26.946,16.172 33.625-2.391 .946,24.758 14.703-22.195 11.476,12.609 4.54-10.508 18.875,13.328-2.688-14.89 35,17.062-24.993-25.094 23.461-13.476-25.109-3.906 23.329-21.203-34.595,5.718 9.11-26.304-19.289,14.812z" fill="#fff466" stroke="#000" stroke-miterlimit="7" stroke-width="4.375"/>
 <path d="m79.474 0-1.97 5.422 1.688 40.109 3.922-2.609z"/>
 <path d="m131.215,50.367-3.5.242-25.929,23.305 4.515,1.383z"/>
 <path d="m132.28 77.602-2.992-0.672-25.703 14.953 4.125 2.305z"/>
 <path d="m133.29 120.7 7.008 3.625-32.913-35.304-1.462 4.476z"/>
 <path d="m140.3 124.32-15.39-7.898-31.18-15.594 0.368 4.703z"/>
 <path d="m96.528 116.84 2.39 3.664-0.937-17.274-5.921-3.367z"/>
 <path d="m43.786 121.78 0.539 7.602 19.172-23.695-5.047-3.43z"/>
 <path d="m7.224,99.125-6.227,3.375 43.086-1.305-.023-4.406z"/>
 <path d="m71.942 113.91 1.484 3.398 5.766-13.914-2.781-1.859z"/>
 <path d="m73.426 117.31-2.734-5.32-10.742-11.242-2.82 2.172z"/>
 <path d="m98.918 120.51-1.78-4.297-20.032-13.242-3.055 2.562z"/>
 <path d="m103.39 26.477-2.516 1.968-10.414 30.367 4.625-0.921z"/>
</svg>
